<svg width="395" height="370" viewBox="0 0 395 370" fill="none" xmlns="http://www.w3.org/2000/svg">
<g clip-path="url(#clip0_1_6703)">
<rect width="393.75" height="368.55" transform="translate(0.450012 0.699951)" fill="#171D33" fill-opacity="0.32"/>
<path d="M27.9819 349.8H30.0231V340.791H28.2339L26.1549 342.265V344.004L27.9819 342.807V349.8ZM31.8963 349.8H33.9375V346.083H37.5537V349.8H39.5949V340.791H37.5537V344.47H33.9375V340.791H31.8963V349.8Z" fill="#748497"/>
<path d="M92.5718 349.8H94.613V340.791H92.8238L90.7448 342.265V344.004L92.5718 342.807V349.8ZM98.5274 348.212V342.378H99.3338C101.236 342.378 102.03 343.374 102.03 345.226V345.327C102.03 347.192 101.173 348.212 99.359 348.212H98.5274ZM96.4862 349.8H99.422C102.585 349.8 104.16 347.998 104.16 345.302V345.201C104.16 342.504 102.597 340.791 99.4346 340.791H96.4862V349.8Z" fill="#2850E7"/>
<path d="M156.878 349.8H158.919V340.791H157.13L155.051 342.265V344.004L156.878 342.807V349.8ZM162.279 349.8H164.244L165.895 343.575L167.52 349.8H169.599L171.792 340.791H169.902L168.44 347.053L166.84 340.791H165.101L163.564 347.015L162.153 340.791H160.086L162.279 349.8Z" fill="#748497"/>
<path d="M224.103 349.8H226.144V340.791H224.355L222.276 342.265V344.004L224.103 342.807V349.8ZM228.017 349.8H229.844V343.475L232.352 349.8H233.019L235.514 343.475V349.8H237.543V340.791H234.897L232.818 346.398L230.714 340.791H228.017V349.8Z" fill="#748497"/>
<path d="M290.608 349.8H292.649V340.791H290.86L288.781 342.265V344.004L290.608 342.807V349.8ZM296.689 349.8H298.743V345.919L301.553 340.791H299.575L297.786 344.243L295.959 340.791H293.716L296.689 345.919V349.8Z" fill="#748497"/>
<path d="M351.851 349.8H353.766L354.384 347.796H357.647L358.264 349.8H360.394L357.471 340.791H354.812L351.851 349.8ZM356.022 342.454L357.206 346.347H354.825L356.022 342.454ZM361.26 349.8H363.074V340.224H361.26V349.8ZM364.539 349.8H366.354V340.224H364.539V349.8Z" fill="#748497"/>
<mask id="path-7-inside-1_1_6703" fill="white">
<path fill-rule="evenodd" clip-rule="evenodd" d="M-5.84999 207.55V250.6H-12.15V379.75H406.8L406.8 272.65L406.8 250.6L406.8 100.975L398.547 115.675L390.294 100.975L382.041 115.675L373.788 84.7001L365.535 124.075L357.282 108.325L349.029 82.0751L340.125 91.0001L332.523 53.7251L324.27 97.3001L316.017 82.0751L307.764 105.7L299.511 114.1L291.258 106.225L283.005 117.775L274.752 151.9L266.499 132.475L258.246 156.1L249.993 147.7L241.74 173.425L233.487 164.5L225.234 190.225L216.981 151.9L208.728 132.475L200.475 173.425L192.222 167.125L183.969 151.9L175.716 181.3L167.463 191.275L159.21 173.95L150.957 189.7L142.704 140.875L134.451 159.775L126.198 125.125L117.945 173.95L109.692 165.55L101.439 191.275L93.186 199.15L84.933 186.55L76.68 184.975L68.427 166.075L60.174 161.35L51.921 177.625L43.668 166.075L35.415 204.4L27.162 192.325L18.909 211.75L10.656 204.4L2.403 224.875L-5.84999 207.55Z"/>
</mask>
<path fill-rule="evenodd" clip-rule="evenodd" d="M-5.84999 207.55V250.6H-12.15V379.75H406.8L406.8 272.65L406.8 250.6L406.8 100.975L398.547 115.675L390.294 100.975L382.041 115.675L373.788 84.7001L365.535 124.075L357.282 108.325L349.029 82.0751L340.125 91.0001L332.523 53.7251L324.27 97.3001L316.017 82.0751L307.764 105.7L299.511 114.1L291.258 106.225L283.005 117.775L274.752 151.9L266.499 132.475L258.246 156.1L249.993 147.7L241.74 173.425L233.487 164.5L225.234 190.225L216.981 151.9L208.728 132.475L200.475 173.425L192.222 167.125L183.969 151.9L175.716 181.3L167.463 191.275L159.21 173.95L150.957 189.7L142.704 140.875L134.451 159.775L126.198 125.125L117.945 173.95L109.692 165.55L101.439 191.275L93.186 199.15L84.933 186.55L76.68 184.975L68.427 166.075L60.174 161.35L51.921 177.625L43.668 166.075L35.415 204.4L27.162 192.325L18.909 211.75L10.656 204.4L2.403 224.875L-5.84999 207.55Z" fill="url(#paint0_linear_1_6703)"/>
<path d="M-5.84999 250.6V253.75H-2.69999V250.6H-5.84999ZM-5.84999 207.55L-3.00618 206.195L-8.99999 207.55H-5.84999ZM-12.15 250.6V247.45H-15.3V250.6H-12.15ZM-12.15 379.75H-15.3V382.9H-12.15V379.75ZM406.8 379.75V382.9H409.95V379.75L406.8 379.75ZM406.8 272.65H409.95H406.8ZM406.8 250.6H403.65H406.8ZM406.8 100.975H409.95V88.9299L404.053 99.433L406.8 100.975ZM398.547 115.675L395.8 117.217L398.547 122.11L401.294 117.217L398.547 115.675ZM390.294 100.975L393.041 99.433L390.294 94.5406L387.547 99.433L390.294 100.975ZM382.041 115.675L378.997 116.486L380.993 123.976L384.788 117.217L382.041 115.675ZM373.788 84.7001L376.832 83.8891L370.705 84.0539L373.788 84.7001ZM365.535 124.075L362.745 125.537L366.818 133.31L368.618 124.721L365.535 124.075ZM357.282 108.325L354.277 109.27L354.361 109.538L354.492 109.787L357.282 108.325ZM349.029 82.0751L352.034 81.1303L350.474 76.1671L346.799 79.8503L349.029 82.0751ZM340.125 91.0001L337.039 91.6296L338.211 97.3786L342.355 93.2249L340.125 91.0001ZM332.523 53.7251L335.609 53.0956L329.428 53.1389L332.523 53.7251ZM324.27 97.3001L321.501 98.8012L325.718 106.582L327.365 97.8863L324.27 97.3001ZM316.017 82.0751L318.786 80.5739L315.392 74.3124L313.043 81.0363L316.017 82.0751ZM307.764 105.7L310.011 107.908L310.505 107.405L310.738 106.739L307.764 105.7ZM299.511 114.1L297.336 116.379L299.582 118.522L301.758 116.308L299.511 114.1ZM291.258 106.225L293.433 103.946L290.806 101.44L288.695 104.394L291.258 106.225ZM283.005 117.775L280.442 115.944L280.087 116.441L279.943 117.035L283.005 117.775ZM274.752 151.9L271.853 153.132L275.576 161.894L277.814 152.641L274.752 151.9ZM266.499 132.475L269.398 131.243L266.212 123.745L263.525 131.436L266.499 132.475ZM258.246 156.1L255.999 158.308L259.549 161.921L261.22 157.139L258.246 156.1ZM249.993 147.7L252.24 145.492L248.586 141.774L246.994 146.738L249.993 147.7ZM241.74 173.425L239.427 175.564L243.091 179.526L244.739 174.387L241.74 173.425ZM233.487 164.5L235.8 162.361L232.136 158.399L230.488 163.538L233.487 164.5ZM225.234 190.225L222.155 190.888L224.635 202.405L228.233 191.187L225.234 190.225ZM216.981 151.9L220.06 151.237L219.997 150.944L219.88 150.668L216.981 151.9ZM208.728 132.475L211.627 131.243L207.65 121.882L205.64 131.853L208.728 132.475ZM200.475 173.425L198.564 175.929L202.568 178.985L203.563 174.047L200.475 173.425ZM192.222 167.125L189.453 168.626L189.774 169.219L190.311 169.629L192.222 167.125ZM183.969 151.9L186.738 150.399L183.036 143.569L180.936 151.049L183.969 151.9ZM175.716 181.3L178.143 183.308L178.568 182.794L178.749 182.151L175.716 181.3ZM167.463 191.275L164.619 192.63L166.743 197.087L169.89 193.283L167.463 191.275ZM159.21 173.95L162.054 172.595L159.344 166.907L156.42 172.488L159.21 173.95ZM150.957 189.7L147.851 190.225L149.409 199.441L153.747 191.162L150.957 189.7ZM142.704 140.875L145.81 140.35L144.048 129.926L139.817 139.615L142.704 140.875ZM134.451 159.775L131.387 160.505L133.569 169.667L137.338 161.036L134.451 159.775ZM126.198 125.125L129.262 124.395L123.092 124.6L126.198 125.125ZM117.945 173.95L115.698 176.158L120.023 180.559L121.051 174.475L117.945 173.95ZM109.692 165.55L111.939 163.342L108.285 159.624L106.693 164.588L109.692 165.55ZM101.439 191.275L103.614 193.554L104.194 193.001L104.438 192.237L101.439 191.275ZM93.186 199.15L90.5509 200.876L92.6237 204.041L95.3606 201.429L93.186 199.15ZM84.933 186.55L87.5681 184.824L86.836 183.706L85.5235 183.456L84.933 186.55ZM76.68 184.975L73.7932 186.236L74.4579 187.758L76.0895 188.069L76.68 184.975ZM68.427 166.075L71.3138 164.815L70.8967 163.859L69.9921 163.341L68.427 166.075ZM60.174 161.35L61.7391 158.616L58.8633 156.97L57.3646 159.925L60.174 161.35ZM51.921 177.625L49.3581 179.456L52.3798 183.685L54.7304 179.05L51.921 177.625ZM43.668 166.075L46.2309 164.244L42.0886 158.447L40.5886 165.412L43.668 166.075ZM35.415 204.4L32.8144 206.178L36.9511 212.23L38.4944 205.063L35.415 204.4ZM27.162 192.325L29.7626 190.548L26.514 185.795L24.2628 191.093L27.162 192.325ZM18.909 211.75L16.814 214.102L20.0918 217.022L21.8082 212.982L18.909 211.75ZM10.656 204.4L12.751 202.048L9.40797 199.07L7.73441 203.222L10.656 204.4ZM2.403 224.875L-0.440815 226.23L2.64346 232.704L5.3246 226.053L2.403 224.875ZM-2.69999 250.6V207.55H-8.99999V250.6H-2.69999ZM-12.15 253.75H-5.84999V247.45H-12.15V253.75ZM-8.99999 379.75V250.6H-15.3V379.75H-8.99999ZM406.8 376.6H-12.15V382.9H406.8V376.6ZM403.65 272.65L403.65 379.75L409.95 379.75L409.95 272.65H403.65ZM403.65 250.6L403.65 272.65H409.95L409.95 250.6H403.65ZM403.65 100.975L403.65 250.6H409.95L409.95 100.975H403.65ZM401.294 117.217L409.547 102.517L404.053 99.433L395.8 114.133L401.294 117.217ZM387.547 102.517L395.8 117.217L401.294 114.133L393.041 99.433L387.547 102.517ZM384.788 117.217L393.041 102.517L387.547 99.433L379.294 114.133L384.788 117.217ZM370.744 85.5111L378.997 116.486L385.085 114.864L376.832 83.8891L370.744 85.5111ZM368.618 124.721L376.871 85.3463L370.705 84.0539L362.452 123.429L368.618 124.721ZM354.492 109.787L362.745 125.537L368.325 122.613L360.072 106.863L354.492 109.787ZM346.024 83.0199L354.277 109.27L360.287 107.38L352.034 81.1303L346.024 83.0199ZM342.355 93.2249L351.259 84.2999L346.799 79.8503L337.895 88.7753L342.355 93.2249ZM329.437 54.3546L337.039 91.6296L343.211 90.3706L335.609 53.0956L329.437 54.3546ZM327.365 97.8863L335.618 54.3113L329.428 53.1389L321.175 96.7139L327.365 97.8863ZM313.248 83.5762L321.501 98.8012L327.039 95.7989L318.786 80.5739L313.248 83.5762ZM310.738 106.739L318.991 83.1139L313.043 81.0363L304.79 104.661L310.738 106.739ZM301.758 116.308L310.011 107.908L305.517 103.492L297.264 111.892L301.758 116.308ZM289.083 108.504L297.336 116.379L301.686 111.821L293.433 103.946L289.083 108.504ZM285.568 119.606L293.821 108.056L288.695 104.394L280.442 115.944L285.568 119.606ZM277.814 152.641L286.067 118.516L279.943 117.035L271.69 151.16L277.814 152.641ZM263.6 133.707L271.853 153.132L277.651 150.668L269.398 131.243L263.6 133.707ZM261.22 157.139L269.473 133.514L263.525 131.436L255.272 155.061L261.22 157.139ZM247.746 149.908L255.999 158.308L260.493 153.892L252.24 145.492L247.746 149.908ZM244.739 174.387L252.992 148.662L246.994 146.738L238.741 172.463L244.739 174.387ZM231.174 166.639L239.427 175.564L244.053 171.286L235.8 162.361L231.174 166.639ZM228.233 191.187L236.486 165.462L230.488 163.538L222.235 189.263L228.233 191.187ZM213.902 152.563L222.155 190.888L228.313 189.562L220.06 151.237L213.902 152.563ZM205.829 133.707L214.082 153.132L219.88 150.668L211.627 131.243L205.829 133.707ZM203.563 174.047L211.816 133.097L205.64 131.853L197.387 172.803L203.563 174.047ZM190.311 169.629L198.564 175.929L202.386 170.921L194.133 164.621L190.311 169.629ZM181.2 153.401L189.453 168.626L194.991 165.624L186.738 150.399L181.2 153.401ZM178.749 182.151L187.002 152.751L180.936 151.049L172.683 180.449L178.749 182.151ZM169.89 193.283L178.143 183.308L173.289 179.292L165.036 189.267L169.89 193.283ZM156.366 175.305L164.619 192.63L170.307 189.92L162.054 172.595L156.366 175.305ZM153.747 191.162L162 175.412L156.42 172.488L148.167 188.238L153.747 191.162ZM139.598 141.4L147.851 190.225L154.063 189.175L145.81 140.35L139.598 141.4ZM137.338 161.036L145.591 142.136L139.817 139.615L131.564 158.515L137.338 161.036ZM123.134 125.855L131.387 160.505L137.515 159.045L129.262 124.395L123.134 125.855ZM121.051 174.475L129.304 125.65L123.092 124.6L114.839 173.425L121.051 174.475ZM107.445 167.758L115.698 176.158L120.192 171.742L111.939 163.342L107.445 167.758ZM104.438 192.237L112.691 166.512L106.693 164.588L98.4396 190.313L104.438 192.237ZM95.3606 201.429L103.614 193.554L99.2644 188.996L91.0114 196.871L95.3606 201.429ZM82.2979 188.276L90.5509 200.876L95.8211 197.424L87.5681 184.824L82.2979 188.276ZM76.0895 188.069L84.3425 189.644L85.5235 183.456L77.2705 181.881L76.0895 188.069ZM65.5402 167.336L73.7932 186.236L79.5668 183.715L71.3138 164.815L65.5402 167.336ZM58.6089 164.084L66.8619 168.809L69.9921 163.341L61.7391 158.616L58.6089 164.084ZM54.7304 179.05L62.9834 162.775L57.3646 159.925L49.1116 176.2L54.7304 179.05ZM41.1051 167.906L49.3581 179.456L54.4839 175.794L46.2309 164.244L41.1051 167.906ZM38.4944 205.063L46.7474 166.738L40.5886 165.412L32.3356 203.737L38.4944 205.063ZM24.5614 194.103L32.8144 206.178L38.0156 202.623L29.7626 190.548L24.5614 194.103ZM21.8082 212.982L30.0612 193.557L24.2628 191.093L16.0098 210.518L21.8082 212.982ZM8.56103 206.752L16.814 214.102L21.004 209.398L12.751 202.048L8.56103 206.752ZM5.3246 226.053L13.5776 205.578L7.73441 203.222L-0.518587 223.697L5.3246 226.053ZM-8.69381 208.905L-0.440815 226.23L5.24682 223.52L-3.00618 206.195L-8.69381 208.905Z" fill="#0267FF" mask="url(#path-7-inside-1_1_6703)"/>
</g>
<defs>
<linearGradient id="paint0_linear_1_6703" x1="199.593" y1="89.5223" x2="199.593" y2="371.561" gradientUnits="userSpaceOnUse">
<stop stop-color="#061033"/>
<stop offset="1" stop-color="#171D33" stop-opacity="0"/>
</linearGradient>
<clipPath id="clip0_1_6703">
<rect width="393.75" height="368.55" fill="white" transform="translate(0.450012 0.699951)"/>
</clipPath>
</defs>
</svg>
