<svg width="1512" height="805" viewBox="0 0 1512 805" fill="none" xmlns="http://www.w3.org/2000/svg">
<path d="M363.598 790.051H373.168L391.132 800.031L377.825 803.358L369.841 800.031H360.527L363.598 790.051ZM363.598 790.051H360.527L343.228 782.733L334.579 768.761L323.268 752.793L327.926 746.805V738.156L323.268 729.506L313.954 717.53V705.554L310.627 673.619L305.97 645.009V593.779L292.663 578.476L276.03 567.831L265.385 553.194L254.739 535.895L245.425 513.939L238.106 510.613V495.31L245.425 489.322L238.106 480.673L245.425 466.701L254.739 452.063L259.397 445.41V436.095L254.739 420.128V415.47L259.397 420.128L265.385 415.47L272.038 407.486H279.356L286.01 398.837H292.663L294.583 405.747M363.598 790.051L365.849 782.733L360.527 776.745L365.849 768.761V760.777L360.527 752.793V741.482L365.849 729.506L360.527 724.849V717.53H373.168V705.554H382.483L391.132 699.566V688.921L387.14 681.603H402.443L411.092 673.619L422.403 654.989L426.395 637.025V627.711L436.375 618.396L450.346 611.077L459.661 607.751L470.972 588.456V553.194L480.286 542.548L490.932 525.25V505.955L483.613 502.629L470.972 495.31L459.661 489.322H445.689L436.375 483.999L431.717 480.673H422.403L415.084 474.685L407.1 470.027V462.043L402.443 452.063L395.789 440.753L380.487 436.095H369.841L363.188 429.442L347.886 410.813L339.902 407.486L327.26 410.813L316.615 407.486L310.627 402.164H300.647L294.583 405.747M294.583 405.747L295.99 410.813L292.663 420.128L286.01 410.813L294.583 405.747ZM339.539 85.5372L337.238 84.8012L327.924 90.1238L312.621 94.7811L300.645 101.434L282.681 108.088L274.032 122.06L287.339 131.374L295.988 138.028L309.96 141.354L305.968 157.322L312.621 165.306L322.601 157.322V148.673L333.912 143.35L347.218 131.374V122.06L353.872 108.088L365.182 101.434L387.138 108.088V115.406L393.792 125.386L411.756 115.406L415.748 138.028L423.066 148.673L433.046 152L423.066 161.314L408.429 168.633H375.162L369.174 179.278H380.485L375.162 193.25L390.465 199.903L375.162 208.553H365.182V199.903H359.194L343.226 208.553L333.912 219.863L319.275 224.521L295.988 242.485L292.661 249.138V263.775L276.028 269.763L265.383 278.412L252.742 287.062L258.064 302.364V314.34L249.415 318.998L245.423 314.34V297.042L233.447 291.054L223.467 287.062L208.164 297.042L189.535 291.054L168.245 302.364L163.587 314.34L156.269 338.958L163.587 354.26L174.232 363.575L189.535 358.252L198.85 345.611C212.156 341.353 210.604 347.385 208.164 350.933L202.176 372.889L208.164 377.547H223.467V402.829L236.774 418.132H249.415L236.774 426.781L220.14 418.132L208.164 402.829L202.176 391.519H195.523L178.224 384.865L168.245 372.889H141.631L112.357 354.26V338.958L99.7154 318.998L89.0701 302.364V287.062H82.4168V297.042L89.0701 309.683V331.639L82.4168 323.655L76.4289 309.683L71.7716 291.054V278.412L61.1263 263.775L56.4689 229.178L71.7716 208.553C77.5378 201.234 90.4008 186.065 95.7234 183.935C102.377 181.274 94.3928 168.633 82.4168 168.633C82.4168 160.117 86.8524 142.02 89.0701 134.036L82.4168 125.386L68.4449 115.406L49.8156 108.088L28.5251 115.406H21.8717L-0.749496 125.386L-42 141.354L-18.7134 122.06L-27.3627 115.406L-18.7134 112.08L-12.7254 101.434H-0.749496L9.23047 94.7811C2.31103 91.5876 3.24249 86.7972 4.57315 84.8012H17.8798L28.5251 79.4785C25.3315 70.9623 32.9606 68.8332 37.1744 68.8332L45.8237 64.8413L71.7716 58.8533H91.0661L136.974 64.8413L155.603 72.1599L182.882 64.8413H221.471L240.1 75.4865L258.064 79.4785V75.4865L274.032 72.1599L282.681 75.4865L295.988 72.1599H305.968V64.8413H312.621V72.1599L322.601 64.8413V58.8533L333.912 54.196L337.238 64.8413L343.226 72.1599L359.194 64.8413H369.174V72.1599L359.194 79.4785H343.226L339.539 85.5372ZM339.539 85.5372L353.872 90.1238L349.88 98.7731L333.912 94.7811L339.539 85.5372ZM939.362 567.166L952.004 553.194L955.33 546.541L959.322 553.194V567.166L955.33 583.134L946.681 604.424V617.731L939.362 625.05H926.721L920.733 617.731V604.424L926.721 591.783V574.485L939.362 567.166ZM627.988 299.038L619.339 302.364L611.355 312.344L605.367 326.316L596.718 337.627V375.551L592.061 383.535L596.718 390.188V398.837L600.044 403.495L605.367 410.813L611.355 420.128L616.012 427.447L632.646 440.753L643.956 444.08L661.255 440.753H678.554L692.526 436.761L703.836 432.104L712.485 436.761L717.808 444.08H730.449L739.764 451.399V485.996L745.752 495.31L750.409 500.633L755.067 515.27L759.059 525.25V545.21L755.067 558.517L750.409 569.827V581.803L759.059 595.11L765.047 611.743L769.039 631.703V641.018L779.684 653.659L785.006 665.635V675.615L789.664 681.603H800.974L809.624 675.615L816.277 681.603L828.918 675.615L843.556 665.635L859.524 646.34L861.52 638.357V631.703L866.177 625.715L875.491 619.062L878.818 611.743L875.491 595.11L884.141 585.13L890.129 576.481L902.77 573.154L909.423 561.843V533.9L902.77 525.25L898.778 507.286L906.762 492.649L918.738 479.342L932.71 463.374L945.351 451.399L954.666 436.761L964.646 420.128V403.495L942.025 410.813L930.049 408.152L922.73 403.495L918.738 392.849L909.423 381.539L898.778 374.22L893.455 358.252L884.141 350.268V339.623L878.818 326.316L871.5 312.344L867.507 302.364L858.858 284.401H825.592L808.293 274.421H793.656V284.401L787.002 289.058L773.696 284.401L763.716 274.421H755.067L739.764 265.106L745.752 259.118L739.764 246.477L725.792 252.465L709.824 250.469L695.852 252.465L675.227 265.106L661.255 259.118L647.948 268.433L637.968 274.421V284.401L627.988 299.038ZM1427.05 720.192L1422.39 731.502L1427.05 735.494L1437.7 731.502L1443.02 724.184L1437.7 720.192H1427.05ZM1341.22 674.95L1357.86 667.631L1375.15 664.304H1382.47L1391.12 667.631L1399.11 680.272L1405.76 674.95L1412.41 685.595L1415.74 691.583V700.232L1423.72 704.89H1434.37L1442.35 708.882L1449.01 704.89L1453.66 700.232H1463.64L1474.29 691.583L1482.94 674.95L1493.58 667.631L1503.56 653.659L1508.89 631.703V619.727L1498.91 607.751L1488.93 587.791L1482.94 579.807V561.843L1474.29 551.863L1470.96 541.218L1463.64 551.863V561.843L1451.67 577.146L1434.37 567.166L1427.05 561.843L1434.37 551.863C1436.81 548.537 1438.09 542.416 1423.72 544.545L1407.76 549.202L1399.11 555.19L1394.45 561.843L1385.13 557.186L1371.16 561.843L1362.51 571.158L1357.86 577.146L1341.22 593.779H1330.58L1306.63 607.751L1299.97 619.727V660.312L1295.31 674.95V680.272L1299.97 685.595L1309.95 680.272L1319.27 674.95H1341.22ZM1517.54 753.459H1532.17L1542.15 748.136L1550.14 740.152H1556.79L1561.45 731.503L1569.43 726.846V718.196L1556.79 726.846L1542.15 731.503L1525.52 740.152C1522.86 742.592 1517.54 748.668 1517.54 753.459ZM1579.41 722.853H1588.06L1596.04 713.539L1606.02 706.22L1600.04 698.236L1596.04 688.256L1592.05 702.228L1582.74 706.22V713.539L1579.41 722.853ZM1518.87 536.56L1504.23 522.588L1500.24 506.62L1486.26 495.975L1465.64 489.322L1453.66 483.334L1442.35 489.322L1435.7 495.975L1428.38 483.334V478.011H1411.75L1418.4 489.322V495.975L1428.38 499.302L1447.01 506.62L1453.66 512.608L1447.01 522.588H1453.66L1460.98 526.58L1474.29 529.907L1478.95 522.588H1486.26L1492.92 526.58L1504.23 536.56L1514.21 541.218L1518.87 536.56ZM1302.63 457.386L1315.94 447.406L1329.25 435.43H1339.23L1343.22 442.084L1339.23 453.394L1343.22 461.378V470.693L1339.23 476.016L1329.25 489.988V496.641H1315.94L1298.64 489.988L1291.99 479.342L1289.33 464.04L1302.63 457.386ZM1320.6 521.258L1305.96 512.609H1270.7L1274.02 521.258H1298.64L1313.28 525.25L1320.6 521.258ZM1271.36 501.963V491.983L1257.39 476.015V469.362L1243.42 459.382L1236.77 448.737L1214.81 439.422V448.737L1226.12 459.382L1239.43 478.677L1248.08 497.306L1257.39 507.286C1262.05 508.838 1271.36 509.947 1271.36 501.963ZM1346.55 365.571L1343.22 378.877L1353.86 397.506L1361.18 414.14L1369.17 430.773L1375.82 438.092H1385.13V423.454L1380.48 410.813L1369.17 397.506L1361.18 384.865L1353.86 378.877V365.571C1351.98 363.353 1347.88 360.248 1346.55 365.571ZM1239.43 436.096L1245.42 454.06L1256.73 463.375H1261.38V447.407L1256.73 436.096L1245.42 429.443L1239.43 422.124L1236.1 414.806V406.156L1228.12 398.172V418.798L1239.43 436.096ZM1182.21 337.627L1188.2 348.937L1198.84 357.587L1203.5 368.232V376.881H1210.15L1216.81 372.889L1222.13 380.208L1227.45 395.511L1234.1 404.16V395.511H1238.76L1252.07 404.16L1263.38 411.478V419.462H1270.03L1276.02 411.478L1284.67 404.16V387.527L1276.02 372.889L1263.38 357.587L1267.37 346.941L1276.02 340.953L1284.67 348.937L1293.32 340.953L1309.29 337.627L1324.59 330.308L1331.24 317.002L1335.23 299.038L1331.24 285.066L1324.59 275.086L1309.29 261.114L1324.59 251.134L1312.61 246.476H1304.63L1293.32 237.827L1304.63 225.186L1312.61 231.174C1313.06 233.17 1316.07 235.964 1324.59 231.174L1331.24 241.154L1345.88 251.134L1348.54 263.11H1360.52L1365.17 255.791L1360.52 246.476L1348.54 237.827L1345.88 231.174V225.186L1348.54 217.202L1354.53 211.879H1365.17L1371.83 195.911V182.605L1368.5 169.298H1371.83L1381.14 182.605L1387.13 191.919L1394.45 195.911L1390.46 182.605V175.286L1381.14 165.971L1368.5 153.995H1360.52L1345.88 148.008H1335.23L1324.59 142.02L1331.24 126.052L1341.22 120.064H1381.14V108.753H1399.11L1407.09 103.43L1412.41 108.753L1407.09 130.709L1418.4 148.008L1435.7 165.971H1442.35V148.008L1439.03 130.709L1427.72 126.052C1424.61 123.39 1421.86 117.136 1435.7 113.41H1449.67L1463.64 103.43V96.1117L1449.67 89.4584L1458.99 82.8051L1468.97 89.4584H1488.26L1478.95 79.4784H1463.64L1449.67 74.1558L1427.72 67.5025L1403.1 63.5105H1387.13L1381.14 67.5025H1348.54L1331.24 58.1879H1293.32L1267.37 51.5345L1245.41 48.2079L1242.09 58.1879H1216.81L1192.85 48.2079H1142.95L1118.34 44.8812L1122.99 37.5626L1118.34 32.24H1099.71L1087.07 26.9173H1074.42L1067.11 32.24H1053.13L1031.18 37.5626V44.8812H1016.54L1005.9 51.5345L991.924 58.1879L982.609 51.5345H968.637L965.31 58.1879L973.294 67.5025H958.657L935.37 70.8291H912.749L895.451 77.4824L884.14 70.8291L880.148 77.4824L870.833 82.8051L862.849 90.7891H852.204L836.236 77.4824L852.204 82.8051H862.849C866.398 81.6962 871.366 77.7486 862.849 70.8291L836.236 67.5025L818.938 58.1879H790.328L773.695 67.5025L753.07 82.8051L723.795 104.761V122.06L733.775 126.717L743.09 122.06L749.743 126.717V136.032L741.094 138.693V130.044L733.775 136.032V148.673L727.787 154.661H720.469L701.839 169.298L687.867 177.282L671.234 180.609L681.879 192.585V206.557L675.891 213.21H648.613L643.956 243.815L655.932 251.799H671.234L687.867 247.142V234.501L701.839 223.855L707.827 213.21H717.142L733.775 206.557L743.09 213.21L761.719 228.513L773.695 243.815C773.03 238.714 772.764 228.513 777.022 228.513C781.28 228.513 768.594 218.311 761.719 213.21L753.07 203.23C751.074 198.573 748.945 190.988 756.396 197.907L773.695 209.883L785.671 217.202L790.328 234.501L801.639 240.488L798.312 247.142L807.627 251.799L811.619 243.815L807.627 234.501L815.611 228.513H823.595V234.501L832.244 251.799H848.212L862.849 255.791L874.16 251.799V266.436L870.833 282.404H858.857L866.841 304.36L874.16 298.372L880.148 314.34L900.108 337.627V348.937L912.749 361.579L920.068 372.889V384.865L926.721 395.511H940.693L952.004 384.865L966.641 376.881L981.944 368.232L995.916 361.579L1006.56 344.945V334.3L992.589 324.32L985.936 318.332L973.96 327.647L966.641 318.332H955.996L952.004 304.36L944.02 295.046L948.677 289.058L955.996 295.046L966.641 307.687L989.928 310.348L999.908 318.332H1016.54L1035.17 324.32L1042.49 318.332L1053.8 334.3H1063.78V344.945H1081.74V361.579L1096.38 395.511L1108.36 419.462C1112.57 422.124 1121.4 424.253 1122.99 411.478V390.853L1126.32 380.208L1146.28 361.579L1156.93 354.26L1161.58 340.953L1182.21 337.627ZM1373.16 270.428L1376.48 279.743L1381.14 283.07L1383.14 275.086L1377.82 269.098L1381.14 266.436L1386.46 269.098H1392.45L1400.44 270.428L1407.76 263.11H1419.73V252.465L1417.07 243.815V236.497L1411.08 227.182H1405.09V217.202H1413.74L1417.07 210.549L1405.09 206.557L1396.44 200.569V219.198L1403.76 233.17L1407.76 241.819L1398.44 252.465L1389.13 258.452H1381.14L1375.15 264.44L1373.16 270.428ZM942.69 244.48L958.658 255.126L968.638 247.807L963.981 237.827L958.658 228.512L968.638 225.186L963.981 217.867H955.331L942.69 211.879V202.564H950.009L955.331 197.242L942.69 187.262L926.057 202.564V211.879L942.69 228.512V244.48ZM840.23 227.182L855.532 221.859H873.496L890.129 227.182L900.775 221.859L890.129 209.218L878.819 201.899V191.254H866.178V201.899H855.532L848.214 191.254L834.907 201.899L830.915 213.875L840.23 227.182ZM697.182 156.657L685.872 140.024L681.214 127.382H672.565V140.024L681.214 147.342L672.565 156.657V160.649L668.573 171.294H681.214L697.182 166.637L701.84 160.649L697.182 156.657ZM659.925 144.681L649.279 149.339V164.641L659.925 159.318L664.582 149.339C666.578 146.234 668.441 140.955 659.925 144.681ZM617.343 84.801L602.706 89.4583L610.69 98.1076H626.658L641.295 89.4583L633.977 84.801H617.343ZM487.604 73.4902L480.951 84.1355V102.765L495.588 113.41H508.229L522.201 94.1155L540.83 84.1355L560.79 78.1475L572.101 73.4902L585.408 70.1636L604.037 64.1756L614.017 58.8529L604.037 50.2036L614.017 44.2157L626.658 38.893L632.646 27.5824L642.626 12.9451L626.658 5.62648H560.79L540.83 12.9451L508.229 8.95313L487.604 12.9451L472.967 20.2638H450.345V27.5824L461.656 32.2397H472.967L487.604 44.2157L495.588 58.8529C496.697 62.1796 496.652 69.7644 487.604 73.4902ZM396.453 27.5826L409.094 16.272H431.715V6.29203H455.002L489.599 2.30005L470.305 16.272L441.03 22.26L425.062 27.5826L412.421 33.5706L396.453 27.5826ZM364.517 45.5466H377.824L393.126 48.8733L401.11 52.8652H409.094L419.074 57.5226L429.054 69.4985L437.038 80.1438C439.034 83.2487 439.3 88.527 424.397 84.8011H419.074V94.7811L409.094 104.096L393.126 99.4384L385.143 89.4584L393.126 80.1438H405.102V75.4865L393.126 60.8492H364.517L351.211 52.8652L364.517 45.5466ZM226.13 45.547L236.11 40.8897H248.086L260.727 45.547L269.376 50.2044L276.03 45.547L282.018 50.2044H292.663V63.511L278.691 65.507L266.715 68.1683H236.11L244.759 57.523L239.436 50.2044H226.13L218.146 57.523L214.154 50.2044L226.13 45.547ZM437.038 182.605L424.397 174.621V166.637L411.756 177.948L405.768 182.605L411.756 186.597H424.397L437.038 182.605ZM282.017 362.91H300.647L312.622 356.256L293.993 352.264H287.34L282.017 362.91ZM232.783 332.969H254.739L274.034 343.615L280.687 347.607L260.062 350.933L250.082 343.615L238.771 337.627L232.783 332.969ZM264.051 193.25H245.422L252.075 181.939H269.374L276.027 189.258L282.681 193.25H289.999V203.23L276.027 210.548V199.903H264.051L256.733 217.867L248.749 223.855L245.422 217.867L252.075 203.23L264.051 193.25ZM394.455 42.22L361.854 36.232L370.503 30.244L382.479 36.232H401.774L394.455 42.22ZM393.127 19.5987L397.784 10.2841H383.812L374.497 16.272L383.812 19.5987H393.127ZM771.032 129.378L765.044 140.689H753.069L744.419 146.677H758.391L765.044 151.334L778.351 146.677H785.004L793.654 140.689V129.378H802.968V121.394H816.275L824.924 115.406L816.275 112.08H793.654L790.327 100.104L802.968 89.4583L793.654 82.1396L785.004 95.4463L771.032 100.104V107.422L778.351 115.406L775.024 121.394L771.032 129.378ZM1349.21 476.016L1343.22 491.318V505.29L1353.2 507.286V495.31L1355.86 491.318L1360.52 499.968L1364.51 495.31L1360.52 485.996L1367.84 480.008H1357.86L1355.86 473.354L1360.52 468.697C1366.73 471.802 1379.15 475.35 1379.15 464.705C1370.5 463.374 1353.2 461.511 1353.2 464.705C1350.54 466.479 1346.01 471.225 1349.21 476.016Z" stroke="#3D4151" stroke-width="2.1" stroke-dasharray="24.15 24.15"/>
</svg>
